# MagicaVoxel @ Ephtracy

# group
o 

# material
mtllib robot-2.mtl
usemtl palette

# normals
vn -1 0 0
vn 1 0 0
vn 0 0 1
vn 0 0 -1
vn 0 -1 0
vn 0 1 0

# texcoords
vt 0.775391 0.5
vt 0.962891 0.5
vt 0.982422 0.5

# verts
v -0.5 2.1 -0.4
v -0.5 2.1 -0.9
v -0.5 2.5 -0.4
v -0.5 2.5 -0.9
v -0.4 2 -0.3
v -0.4 2 -1
v -0.4 2.1 -0.4
v -0.4 2.1 -0.9
v -0.4 2.5 -0.4
v -0.4 2.5 -0.9
v -0.4 2.6 -0.3
v -0.4 2.6 -1
v 0.3 2.1 -0.3
v 0.3 2.1 -0.4
v 0.3 2.5 -0.3
v 0.3 2.5 -0.4
v -0.3 2.1 -0.3
v -0.3 2.1 -0.4
v -0.3 2.5 -0.3
v -0.3 2.5 -0.4
v 0.4 2 -0.3
v 0.4 2 -1
v 0.4 2.1 -0.4
v 0.4 2.1 -0.9
v 0.4 2.5 -0.4
v 0.4 2.5 -0.9
v 0.4 2.6 -0.3
v 0.4 2.6 -1
v 0.5 2.1 -0.4
v 0.5 2.1 -0.9
v 0.5 2.5 -0.4
v 0.5 2.5 -0.9
v -0.4 2 -0.3
v -0.4 2.6 -0.3
v -0.3 2.1 -0.3
v -0.3 2.5 -0.3
v 0.3 2.1 -0.3
v 0.3 2.5 -0.3
v 0.4 2 -0.3
v 0.4 2.6 -0.3
v -0.5 2.1 -0.4
v -0.5 2.5 -0.4
v -0.4 2.1 -0.4
v -0.4 2.5 -0.4
v -0.3 2.1 -0.4
v -0.3 2.5 -0.4
v -0.2 2.2 -0.4
v -0.2 2.4 -0.4
v -0.1 2.2 -0.4
v -0.1 2.4 -0.4
v 0.1 2.2 -0.4
v 0.1 2.4 -0.4
v 0.2 2.2 -0.4
v 0.2 2.4 -0.4
v 0.3 2.1 -0.4
v 0.3 2.5 -0.4
v 0.4 2.1 -0.4
v 0.4 2.5 -0.4
v 0.5 2.1 -0.4
v 0.5 2.5 -0.4
v -0.5 2.1 -0.9
v -0.5 2.5 -0.9
v -0.4 2.1 -0.9
v -0.4 2.5 -0.9
v 0.4 2.1 -0.9
v 0.4 2.5 -0.9
v 0.5 2.1 -0.9
v 0.5 2.5 -0.9
v -0.4 2 -1
v -0.4 2.6 -1
v 0.4 2 -1
v 0.4 2.6 -1
v -0.4 2 -0.3
v 0.4 2 -0.3
v -0.4 2 -1
v 0.4 2 -1
v -0.5 2.1 -0.4
v -0.4 2.1 -0.4
v 0.4 2.1 -0.4
v 0.5 2.1 -0.4
v -0.5 2.1 -0.9
v -0.4 2.1 -0.9
v 0.4 2.1 -0.9
v 0.5 2.1 -0.9
v -0.3 2.5 -0.3
v 0.3 2.5 -0.3
v -0.3 2.5 -0.4
v 0.3 2.5 -0.4
v -0.3 2.1 -0.3
v 0.3 2.1 -0.3
v -0.3 2.1 -0.4
v 0.3 2.1 -0.4
v -0.5 2.5 -0.4
v -0.4 2.5 -0.4
v 0.4 2.5 -0.4
v 0.5 2.5 -0.4
v -0.5 2.5 -0.9
v -0.4 2.5 -0.9
v 0.4 2.5 -0.9
v 0.5 2.5 -0.9
v -0.4 2.6 -0.3
v 0.4 2.6 -0.3
v -0.4 2.6 -1
v 0.4 2.6 -1

# faces
f 3/3/1 2/3/1 1/3/1
f 4/3/1 2/3/1 3/3/1
f 7/2/1 6/2/1 5/2/1
f 8/2/1 6/2/1 7/2/1
f 9/2/1 7/2/1 5/2/1
f 10/2/1 6/2/1 8/2/1
f 11/2/1 9/2/1 5/2/1
f 11/2/1 10/2/1 9/2/1
f 12/2/1 6/2/1 10/2/1
f 12/2/1 10/2/1 11/2/1
f 15/2/1 14/2/1 13/2/1
f 16/2/1 14/2/1 15/2/1
f 17/2/2 18/2/2 19/2/2
f 19/2/2 18/2/2 20/2/2
f 21/2/2 22/2/2 23/2/2
f 23/2/2 22/2/2 24/2/2
f 21/2/2 23/2/2 25/2/2
f 24/2/2 22/2/2 26/2/2
f 21/2/2 25/2/2 27/2/2
f 25/2/2 26/2/2 27/2/2
f 26/2/2 22/2/2 28/2/2
f 27/2/2 26/2/2 28/2/2
f 29/3/2 30/3/2 31/3/2
f 31/3/2 30/3/2 32/3/2
f 35/2/3 34/2/3 33/2/3
f 36/2/3 34/2/3 35/2/3
f 37/2/3 35/2/3 33/2/3
f 38/2/3 34/2/3 36/2/3
f 39/2/3 37/2/3 33/2/3
f 39/2/3 38/2/3 37/2/3
f 40/2/3 34/2/3 38/2/3
f 40/2/3 38/2/3 39/2/3
f 43/3/3 42/3/3 41/3/3
f 44/3/3 42/3/3 43/3/3
f 47/3/3 46/3/3 45/3/3
f 48/3/3 46/3/3 47/3/3
f 49/3/3 47/3/3 45/3/3
f 49/1/3 48/1/3 47/1/3
f 50/3/3 46/3/3 48/3/3
f 50/1/3 48/1/3 49/1/3
f 51/3/3 49/3/3 45/3/3
f 51/3/3 50/3/3 49/3/3
f 52/3/3 46/3/3 50/3/3
f 52/3/3 50/3/3 51/3/3
f 53/3/3 51/3/3 45/3/3
f 53/1/3 52/1/3 51/1/3
f 54/3/3 46/3/3 52/3/3
f 54/1/3 52/1/3 53/1/3
f 55/3/3 53/3/3 45/3/3
f 55/3/3 54/3/3 53/3/3
f 56/3/3 46/3/3 54/3/3
f 56/3/3 54/3/3 55/3/3
f 59/3/3 58/3/3 57/3/3
f 60/3/3 58/3/3 59/3/3
f 61/3/4 62/3/4 63/3/4
f 63/3/4 62/3/4 64/3/4
f 65/3/4 66/3/4 67/3/4
f 67/3/4 66/3/4 68/3/4
f 69/2/4 70/2/4 71/2/4
f 71/2/4 70/2/4 72/2/4
f 75/2/5 74/2/5 73/2/5
f 76/2/5 74/2/5 75/2/5
f 81/3/5 78/3/5 77/3/5
f 82/3/5 78/3/5 81/3/5
f 83/3/5 80/3/5 79/3/5
f 84/3/5 80/3/5 83/3/5
f 87/2/5 86/2/5 85/2/5
f 88/2/5 86/2/5 87/2/5
f 89/2/6 90/2/6 91/2/6
f 91/2/6 90/2/6 92/2/6
f 93/3/6 94/3/6 97/3/6
f 97/3/6 94/3/6 98/3/6
f 95/3/6 96/3/6 99/3/6
f 99/3/6 96/3/6 100/3/6
f 101/2/6 102/2/6 103/2/6
f 103/2/6 102/2/6 104/2/6
