# MagicaVoxel @ Ephtracy

# group
o 

# material
mtllib robot_ground-2.mtl
usemtl palette

# normals
vn -1 0 0
vn 1 0 0
vn 0 0 1
vn 0 0 -1
vn 0 -1 0
vn 0 1 0

# texcoords
vt 0.0175781 0.5
vt 0.0410156 0.5
vt 0.0449219 0.5
vt 0.0683594 0.5

# verts
v 3.4 1 -0.5
v 3.4 1 -0.7
v 3.4 1.4 -0.5
v 3.4 1.4 -0.7
v 3.5 0.9 -0.5
v 3.5 0.9 -0.7
v 3.5 1 -0.5
v 3.5 1 -0.7
v 3.5 1.4 -0.5
v 3.5 1.4 -0.7
v 3.5 1.5 -0.5
v 3.5 1.5 -0.7
v 3.6 0.8 -0.5
v 3.6 0.8 -0.7
v 3.6 0.9 -0.5
v 3.6 0.9 -0.7
v 3.6 1.5 -0.5
v 3.6 1.5 -0.7
v 3.6 1.6 -0.5
v 3.6 1.6 -0.7
v 4 0.8 -0.5
v 4 0.8 -0.7
v 4 0.9 -0.5
v 4 0.9 -0.7
v 4 1.5 -0.5
v 4 1.5 -0.7
v 4 1.6 -0.5
v 4 1.6 -0.7
v 4.1 0.9 -0.5
v 4.1 0.9 -0.7
v 4.1 1 -0.5
v 4.1 1 -0.7
v 4.1 1.4 -0.5
v 4.1 1.4 -0.7
v 4.1 1.5 -0.5
v 4.1 1.5 -0.7
v 4.2 1 -0.5
v 4.2 1 -0.7
v 4.2 1.4 -0.5
v 4.2 1.4 -0.7
v 3.4 1 -0.5
v 3.4 1.4 -0.5
v 3.5 0.9 -0.5
v 3.5 1 -0.5
v 3.5 1.1 -0.5
v 3.5 1.3 -0.5
v 3.5 1.4 -0.5
v 3.5 1.5 -0.5
v 3.6 0.8 -0.5
v 3.6 0.9 -0.5
v 3.6 1 -0.5
v 3.6 1.1 -0.5
v 3.6 1.3 -0.5
v 3.6 1.4 -0.5
v 3.6 1.5 -0.5
v 3.6 1.6 -0.5
v 3.7 0.9 -0.5
v 3.7 1 -0.5
v 3.7 1.1 -0.5
v 3.7 1.2 -0.5
v 3.7 1.4 -0.5
v 3.7 1.5 -0.5
v 3.8 1 -0.5
v 3.8 1.1 -0.5
v 3.8 1.2 -0.5
v 3.8 1.3 -0.5
v 3.9 0.9 -0.5
v 3.9 1 -0.5
v 3.9 1.1 -0.5
v 3.9 1.2 -0.5
v 3.9 1.3 -0.5
v 3.9 1.4 -0.5
v 3.9 1.5 -0.5
v 4 0.8 -0.5
v 4 0.9 -0.5
v 4 1 -0.5
v 4 1.1 -0.5
v 4 1.2 -0.5
v 4 1.3 -0.5
v 4 1.4 -0.5
v 4 1.5 -0.5
v 4 1.6 -0.5
v 4.1 0.9 -0.5
v 4.1 1 -0.5
v 4.1 1.1 -0.5
v 4.1 1.3 -0.5
v 4.1 1.4 -0.5
v 4.1 1.5 -0.5
v 4.2 1 -0.5
v 4.2 1.4 -0.5
v 3.4 1 -0.7
v 3.4 1.4 -0.7
v 3.5 0.9 -0.7
v 3.5 1 -0.7
v 3.5 1.1 -0.7
v 3.5 1.3 -0.7
v 3.5 1.4 -0.7
v 3.5 1.5 -0.7
v 3.6 0.8 -0.7
v 3.6 0.9 -0.7
v 3.6 1 -0.7
v 3.6 1.1 -0.7
v 3.6 1.3 -0.7
v 3.6 1.4 -0.7
v 3.6 1.5 -0.7
v 3.6 1.6 -0.7
v 3.7 0.9 -0.7
v 3.7 1 -0.7
v 3.7 1.4 -0.7
v 3.7 1.5 -0.7
v 3.9 0.9 -0.7
v 3.9 1 -0.7
v 3.9 1.4 -0.7
v 3.9 1.5 -0.7
v 4 0.8 -0.7
v 4 0.9 -0.7
v 4 1 -0.7
v 4 1.1 -0.7
v 4 1.3 -0.7
v 4 1.4 -0.7
v 4 1.5 -0.7
v 4 1.6 -0.7
v 4.1 0.9 -0.7
v 4.1 1 -0.7
v 4.1 1.1 -0.7
v 4.1 1.3 -0.7
v 4.1 1.4 -0.7
v 4.1 1.5 -0.7
v 4.2 1 -0.7
v 4.2 1.4 -0.7
v 3.6 0.8 -0.5
v 4 0.8 -0.5
v 3.6 0.8 -0.7
v 4 0.8 -0.7
v 3.5 0.9 -0.5
v 3.6 0.9 -0.5
v 4 0.9 -0.5
v 4.1 0.9 -0.5
v 3.5 0.9 -0.7
v 3.6 0.9 -0.7
v 4 0.9 -0.7
v 4.1 0.9 -0.7
v 3.4 1 -0.5
v 3.5 1 -0.5
v 4.1 1 -0.5
v 4.2 1 -0.5
v 3.4 1 -0.7
v 3.5 1 -0.7
v 4.1 1 -0.7
v 4.2 1 -0.7
v 3.4 1.4 -0.5
v 3.5 1.4 -0.5
v 4.1 1.4 -0.5
v 4.2 1.4 -0.5
v 3.4 1.4 -0.7
v 3.5 1.4 -0.7
v 4.1 1.4 -0.7
v 4.2 1.4 -0.7
v 3.5 1.5 -0.5
v 3.6 1.5 -0.5
v 4 1.5 -0.5
v 4.1 1.5 -0.5
v 3.5 1.5 -0.7
v 3.6 1.5 -0.7
v 4 1.5 -0.7
v 4.1 1.5 -0.7
v 3.6 1.6 -0.5
v 4 1.6 -0.5
v 3.6 1.6 -0.7
v 4 1.6 -0.7

# faces
f 3/3/1 2/3/1 1/3/1
f 4/3/1 2/3/1 3/3/1
f 7/3/1 6/3/1 5/3/1
f 8/3/1 6/3/1 7/3/1
f 11/3/1 10/3/1 9/3/1
f 12/3/1 10/3/1 11/3/1
f 15/3/1 14/3/1 13/3/1
f 16/3/1 14/3/1 15/3/1
f 19/3/1 18/3/1 17/3/1
f 20/3/1 18/3/1 19/3/1
f 21/3/2 22/3/2 23/3/2
f 23/3/2 22/3/2 24/3/2
f 25/3/2 26/3/2 27/3/2
f 27/3/2 26/3/2 28/3/2
f 29/3/2 30/3/2 31/3/2
f 31/3/2 30/3/2 32/3/2
f 33/3/2 34/3/2 35/3/2
f 35/3/2 34/3/2 36/3/2
f 37/3/2 38/3/2 39/3/2
f 39/3/2 38/3/2 40/3/2
f 44/3/3 42/3/3 41/3/3
f 45/3/3 42/3/3 44/3/3
f 46/3/3 42/3/3 45/3/3
f 47/3/3 42/3/3 46/3/3
f 50/3/3 44/3/3 43/3/3
f 50/3/3 45/3/3 44/3/3
f 51/3/3 45/3/3 50/3/3
f 52/4/3 46/4/3 45/4/3
f 52/3/3 45/3/3 51/3/3
f 53/3/3 48/3/3 47/3/3
f 53/4/3 46/4/3 52/4/3
f 53/3/3 47/3/3 46/3/3
f 54/3/3 48/3/3 53/3/3
f 55/3/3 48/3/3 54/3/3
f 57/3/3 50/3/3 49/3/3
f 57/3/3 51/3/3 50/3/3
f 58/1/3 52/1/3 51/1/3
f 58/3/3 51/3/3 57/3/3
f 59/4/3 53/4/3 52/4/3
f 59/1/3 52/1/3 58/1/3
f 59/4/3 54/4/3 53/4/3
f 60/4/3 54/4/3 59/4/3
f 61/3/3 56/3/3 55/3/3
f 61/4/3 54/4/3 60/4/3
f 61/3/3 55/3/3 54/3/3
f 62/3/3 56/3/3 61/3/3
f 63/2/3 59/2/3 58/2/3
f 63/1/3 58/1/3 57/1/3
f 64/1/3 60/1/3 59/1/3
f 64/2/3 59/2/3 63/2/3
f 65/4/3 62/4/3 61/4/3
f 65/1/3 60/1/3 64/1/3
f 65/4/3 61/4/3 60/4/3
f 66/4/3 62/4/3 65/4/3
f 67/3/3 57/3/3 49/3/3
f 67/1/3 63/1/3 57/1/3
f 67/1/3 64/1/3 63/1/3
f 68/1/3 64/1/3 67/1/3
f 69/2/3 65/2/3 64/2/3
f 69/1/3 64/1/3 68/1/3
f 70/1/3 66/1/3 65/1/3
f 70/2/3 65/2/3 69/2/3
f 71/4/3 62/4/3 66/4/3
f 71/1/3 66/1/3 70/1/3
f 72/4/3 62/4/3 71/4/3
f 73/3/3 56/3/3 62/3/3
f 73/4/3 62/4/3 72/4/3
f 74/3/3 68/3/3 67/3/3
f 74/3/3 67/3/3 49/3/3
f 75/3/3 68/3/3 74/3/3
f 76/1/3 70/1/3 69/1/3
f 76/3/3 68/3/3 75/3/3
f 76/1/3 69/1/3 68/1/3
f 77/1/3 70/1/3 76/1/3
f 78/2/3 71/2/3 70/2/3
f 78/1/3 70/1/3 77/1/3
f 79/1/3 72/1/3 71/1/3
f 79/2/3 71/2/3 78/2/3
f 80/3/3 73/3/3 72/3/3
f 80/1/3 72/1/3 79/1/3
f 81/3/3 56/3/3 73/3/3
f 81/3/3 73/3/3 80/3/3
f 82/3/3 56/3/3 81/3/3
f 83/3/3 77/3/3 76/3/3
f 83/3/3 76/3/3 75/3/3
f 84/3/3 77/3/3 83/3/3
f 85/1/3 78/1/3 77/1/3
f 85/3/3 77/3/3 84/3/3
f 85/1/3 79/1/3 78/1/3
f 86/3/3 80/3/3 79/3/3
f 86/1/3 79/1/3 85/1/3
f 86/3/3 81/3/3 80/3/3
f 87/3/3 81/3/3 86/3/3
f 88/3/3 81/3/3 87/3/3
f 89/3/3 85/3/3 84/3/3
f 89/3/3 87/3/3 86/3/3
f 89/3/3 86/3/3 85/3/3
f 90/3/3 87/3/3 89/3/3
f 91/3/4 92/3/4 94/3/4
f 94/3/4 92/3/4 95/3/4
f 95/3/4 92/3/4 96/3/4
f 96/3/4 92/3/4 97/3/4
f 93/3/4 94/3/4 100/3/4
f 94/3/4 95/3/4 100/3/4
f 100/3/4 95/3/4 101/3/4
f 95/4/4 96/4/4 102/4/4
f 101/3/4 95/3/4 102/3/4
f 97/3/4 98/3/4 103/3/4
f 102/4/4 96/4/4 103/4/4
f 96/3/4 97/3/4 103/3/4
f 103/3/4 98/3/4 104/3/4
f 104/3/4 98/3/4 105/3/4
f 99/3/4 100/3/4 107/3/4
f 100/3/4 101/3/4 107/3/4
f 101/4/4 102/4/4 108/4/4
f 107/3/4 101/3/4 108/3/4
f 102/4/4 103/4/4 108/4/4
f 103/4/4 104/4/4 108/4/4
f 105/3/4 106/3/4 109/3/4
f 108/4/4 104/4/4 109/4/4
f 104/3/4 105/3/4 109/3/4
f 109/3/4 106/3/4 110/3/4
f 99/3/4 107/3/4 111/3/4
f 107/4/4 108/4/4 111/4/4
f 109/4/4 110/4/4 111/4/4
f 108/4/4 109/4/4 111/4/4
f 111/4/4 110/4/4 112/4/4
f 112/4/4 110/4/4 113/4/4
f 110/3/4 106/3/4 114/3/4
f 113/4/4 110/4/4 114/4/4
f 99/3/4 111/3/4 115/3/4
f 111/3/4 112/3/4 115/3/4
f 115/3/4 112/3/4 116/3/4
f 112/4/4 113/4/4 117/4/4
f 116/3/4 112/3/4 117/3/4
f 117/4/4 113/4/4 118/4/4
f 118/4/4 113/4/4 119/4/4
f 113/3/4 114/3/4 120/3/4
f 119/4/4 113/4/4 120/4/4
f 114/3/4 106/3/4 121/3/4
f 120/3/4 114/3/4 121/3/4
f 121/3/4 106/3/4 122/3/4
f 116/3/4 117/3/4 123/3/4
f 117/3/4 118/3/4 123/3/4
f 123/3/4 118/3/4 124/3/4
f 118/4/4 119/4/4 125/4/4
f 124/3/4 118/3/4 125/3/4
f 119/3/4 120/3/4 126/3/4
f 125/4/4 119/4/4 126/4/4
f 120/3/4 121/3/4 126/3/4
f 126/3/4 121/3/4 127/3/4
f 127/3/4 121/3/4 128/3/4
f 124/3/4 125/3/4 129/3/4
f 126/3/4 127/3/4 129/3/4
f 125/3/4 126/3/4 129/3/4
f 129/3/4 127/3/4 130/3/4
f 133/3/5 132/3/5 131/3/5
f 134/3/5 132/3/5 133/3/5
f 139/3/5 136/3/5 135/3/5
f 140/3/5 136/3/5 139/3/5
f 141/3/5 138/3/5 137/3/5
f 142/3/5 138/3/5 141/3/5
f 147/3/5 144/3/5 143/3/5
f 148/3/5 144/3/5 147/3/5
f 149/3/5 146/3/5 145/3/5
f 150/3/5 146/3/5 149/3/5
f 151/3/6 152/3/6 155/3/6
f 155/3/6 152/3/6 156/3/6
f 153/3/6 154/3/6 157/3/6
f 157/3/6 154/3/6 158/3/6
f 159/3/6 160/3/6 163/3/6
f 163/3/6 160/3/6 164/3/6
f 161/3/6 162/3/6 165/3/6
f 165/3/6 162/3/6 166/3/6
f 167/3/6 168/3/6 169/3/6
f 169/3/6 168/3/6 170/3/6
