# MagicaVoxel @ Ephtracy

# group
o 

# material
mtllib robot_ground-3.mtl
usemtl palette

# normals
vn -1 0 0
vn 1 0 0
vn 0 0 1
vn 0 0 -1
vn 0 -1 0
vn 0 1 0

# texcoords
vt 0.306641 0.5
vt 0.986328 0.5
vt 0.990234 0.5
vt 0.994141 0.5

# verts
v -3.1 0 3
v -3.1 0 1.2
v -3.1 0.4 3
v -3.1 0.4 1.2
v -2.6 0.1 2.5
v -2.6 0.1 1.7
v -2.6 0.2 2.5
v -2.6 0.2 1.7
v -2.5 0.2 2.4
v -2.5 0.2 1.8
v -2.5 0.3 2.4
v -2.5 0.3 1.8
v -2.4 0.3 2.3
v -2.4 0.3 1.9
v -2.4 0.4 2.3
v -2.4 0.4 1.9
v -1.9 0.2 2.7
v -1.9 0.2 2.6
v -1.9 0.2 1.6
v -1.9 0.2 1.5
v -1.9 0.3 2.7
v -1.9 0.3 2.6
v -1.9 0.3 1.6
v -1.9 0.3 1.5
v -1.8 0.1 2.6
v -1.8 0.1 2.5
v -1.8 0.1 1.7
v -1.8 0.1 1.6
v -1.8 0.2 2.5
v -1.8 0.2 1.7
v -1.8 0.3 2.8
v -1.8 0.3 2.7
v -1.8 0.3 2.6
v -1.8 0.3 2.5
v -1.8 0.3 1.7
v -1.8 0.3 1.6
v -1.8 0.3 1.5
v -1.8 0.3 1.4
v -1.8 0.4 2.8
v -1.8 0.4 2.7
v -1.8 0.4 1.5
v -1.8 0.4 1.4
v -1.7 0.1 2.5
v -1.7 0.1 1.7
v -1.7 0.2 2.4
v -1.7 0.2 1.8
v -1.7 0.3 2.7
v -1.7 0.3 2.6
v -1.7 0.3 2.5
v -1.7 0.3 2.4
v -1.7 0.3 1.8
v -1.7 0.3 1.7
v -1.7 0.3 1.6
v -1.7 0.3 1.5
v -1.7 0.4 2.7
v -1.7 0.4 2.6
v -1.7 0.4 1.6
v -1.7 0.4 1.5
v -1.6 0.2 2.4
v -1.6 0.2 1.8
v -1.6 0.3 2.6
v -1.6 0.3 2.5
v -1.6 0.3 2.4
v -1.6 0.3 1.8
v -1.6 0.3 1.7
v -1.6 0.3 1.6
v -1.6 0.4 2.6
v -1.6 0.4 2.5
v -1.6 0.4 1.7
v -1.6 0.4 1.6
v -1.5 0.3 2.5
v -1.5 0.3 1.7
v -1.5 0.4 2.5
v -1.5 0.4 1.7
v -2.9 0.3 2.5
v -2.9 0.3 1.7
v -2.9 0.4 2.5
v -2.9 0.4 1.7
v -2.8 0.2 2.4
v -2.8 0.2 1.8
v -2.8 0.3 2.6
v -2.8 0.3 2.5
v -2.8 0.3 2.4
v -2.8 0.3 1.8
v -2.8 0.3 1.7
v -2.8 0.3 1.6
v -2.8 0.4 2.6
v -2.8 0.4 2.5
v -2.8 0.4 1.7
v -2.8 0.4 1.6
v -2.7 0.1 2.5
v -2.7 0.1 1.7
v -2.7 0.2 2.4
v -2.7 0.2 1.8
v -2.7 0.3 2.7
v -2.7 0.3 2.6
v -2.7 0.3 2.5
v -2.7 0.3 2.4
v -2.7 0.3 1.8
v -2.7 0.3 1.7
v -2.7 0.3 1.6
v -2.7 0.3 1.5
v -2.7 0.4 2.7
v -2.7 0.4 2.6
v -2.7 0.4 1.6
v -2.7 0.4 1.5
v -2.6 0.1 2.6
v -2.6 0.1 2.5
v -2.6 0.1 1.7
v -2.6 0.1 1.6
v -2.6 0.2 2.5
v -2.6 0.2 1.7
v -2.6 0.3 2.8
v -2.6 0.3 2.7
v -2.6 0.3 2.6
v -2.6 0.3 2.5
v -2.6 0.3 1.7
v -2.6 0.3 1.6
v -2.6 0.3 1.5
v -2.6 0.3 1.4
v -2.6 0.4 2.8
v -2.6 0.4 2.7
v -2.6 0.4 1.5
v -2.6 0.4 1.4
v -2.5 0.2 2.7
v -2.5 0.2 2.6
v -2.5 0.2 1.6
v -2.5 0.2 1.5
v -2.5 0.3 2.7
v -2.5 0.3 2.6
v -2.5 0.3 1.6
v -2.5 0.3 1.5
v -2 0.3 2.3
v -2 0.3 1.9
v -2 0.4 2.3
v -2 0.4 1.9
v -1.9 0.2 2.4
v -1.9 0.2 1.8
v -1.9 0.3 2.4
v -1.9 0.3 1.8
v -1.8 0.1 2.5
v -1.8 0.1 1.7
v -1.8 0.2 2.5
v -1.8 0.2 1.7
v -1.3 0 3
v -1.3 0 1.2
v -1.3 0.4 3
v -1.3 0.4 1.2
v -3.1 0 3
v -3.1 0.4 3
v -1.3 0 3
v -1.3 0.4 3
v -2.6 0.1 2.5
v -2.6 0.2 2.5
v -1.8 0.1 2.5
v -1.8 0.2 2.5
v -2.5 0.2 2.4
v -2.5 0.3 2.4
v -1.9 0.2 2.4
v -1.9 0.3 2.4
v -2.4 0.3 2.3
v -2.4 0.4 2.3
v -2 0.3 2.3
v -2 0.4 2.3
v -2.8 0.2 1.8
v -2.8 0.3 1.8
v -2.7 0.2 1.8
v -2.7 0.3 1.8
v -1.7 0.2 1.8
v -1.7 0.3 1.8
v -1.6 0.2 1.8
v -1.6 0.3 1.8
v -2.9 0.3 1.7
v -2.9 0.4 1.7
v -2.8 0.3 1.7
v -2.8 0.4 1.7
v -2.7 0.1 1.7
v -2.7 0.3 1.7
v -2.6 0.1 1.7
v -2.6 0.2 1.7
v -2.6 0.3 1.7
v -1.8 0.1 1.7
v -1.8 0.2 1.7
v -1.8 0.3 1.7
v -1.7 0.1 1.7
v -1.7 0.3 1.7
v -1.6 0.3 1.7
v -1.6 0.4 1.7
v -1.5 0.3 1.7
v -1.5 0.4 1.7
v -2.8 0.3 1.6
v -2.8 0.4 1.6
v -2.7 0.3 1.6
v -2.7 0.4 1.6
v -2.6 0.1 1.6
v -2.6 0.3 1.6
v -2.5 0.2 1.6
v -2.5 0.3 1.6
v -1.9 0.2 1.6
v -1.9 0.3 1.6
v -1.8 0.1 1.6
v -1.8 0.3 1.6
v -1.7 0.3 1.6
v -1.7 0.4 1.6
v -1.6 0.3 1.6
v -1.6 0.4 1.6
v -2.7 0.3 1.5
v -2.7 0.4 1.5
v -2.6 0.3 1.5
v -2.6 0.4 1.5
v -2.5 0.2 1.5
v -2.5 0.3 1.5
v -1.9 0.2 1.5
v -1.9 0.3 1.5
v -1.8 0.3 1.5
v -1.8 0.4 1.5
v -1.7 0.3 1.5
v -1.7 0.4 1.5
v -2.6 0.3 1.4
v -2.6 0.4 1.4
v -1.8 0.3 1.4
v -1.8 0.4 1.4
v -2.6 0.3 2.8
v -2.6 0.4 2.8
v -1.8 0.3 2.8
v -1.8 0.4 2.8
v -2.7 0.3 2.7
v -2.7 0.4 2.7
v -2.6 0.3 2.7
v -2.6 0.4 2.7
v -2.5 0.2 2.7
v -2.5 0.3 2.7
v -1.9 0.2 2.7
v -1.9 0.3 2.7
v -1.8 0.3 2.7
v -1.8 0.4 2.7
v -1.7 0.3 2.7
v -1.7 0.4 2.7
v -2.8 0.3 2.6
v -2.8 0.4 2.6
v -2.7 0.3 2.6
v -2.7 0.4 2.6
v -2.6 0.1 2.6
v -2.6 0.3 2.6
v -2.5 0.2 2.6
v -2.5 0.3 2.6
v -1.9 0.2 2.6
v -1.9 0.3 2.6
v -1.8 0.1 2.6
v -1.8 0.3 2.6
v -1.7 0.3 2.6
v -1.7 0.4 2.6
v -1.6 0.3 2.6
v -1.6 0.4 2.6
v -2.9 0.3 2.5
v -2.9 0.4 2.5
v -2.8 0.3 2.5
v -2.8 0.4 2.5
v -2.7 0.1 2.5
v -2.7 0.3 2.5
v -2.6 0.1 2.5
v -2.6 0.2 2.5
v -2.6 0.3 2.5
v -1.8 0.1 2.5
v -1.8 0.2 2.5
v -1.8 0.3 2.5
v -1.7 0.1 2.5
v -1.7 0.3 2.5
v -1.6 0.3 2.5
v -1.6 0.4 2.5
v -1.5 0.3 2.5
v -1.5 0.4 2.5
v -2.8 0.2 2.4
v -2.8 0.3 2.4
v -2.7 0.2 2.4
v -2.7 0.3 2.4
v -1.7 0.2 2.4
v -1.7 0.3 2.4
v -1.6 0.2 2.4
v -1.6 0.3 2.4
v -2.4 0.3 1.9
v -2.4 0.4 1.9
v -2 0.3 1.9
v -2 0.4 1.9
v -2.5 0.2 1.8
v -2.5 0.3 1.8
v -1.9 0.2 1.8
v -1.9 0.3 1.8
v -2.6 0.1 1.7
v -2.6 0.2 1.7
v -1.8 0.1 1.7
v -1.8 0.2 1.7
v -3.1 0 1.2
v -3.1 0.4 1.2
v -1.3 0 1.2
v -1.3 0.4 1.2
v -3.1 0 3
v -1.3 0 3
v -2.6 0 2.6
v -1.8 0 2.6
v -2.7 0 2.5
v -2.6 0 2.5
v -2.5 0 2.5
v -1.9 0 2.5
v -1.8 0 2.5
v -1.7 0 2.5
v -2.6 0 2.4
v -2.5 0 2.4
v -1.9 0 2.4
v -1.8 0 2.4
v -2.6 0 1.8
v -2.5 0 1.8
v -1.9 0 1.8
v -1.8 0 1.8
v -2.7 0 1.7
v -2.6 0 1.7
v -2.5 0 1.7
v -1.9 0 1.7
v -1.8 0 1.7
v -1.7 0 1.7
v -2.6 0 1.6
v -1.8 0 1.6
v -3.1 0 1.2
v -1.3 0 1.2
v -2.6 0.1 2.6
v -1.8 0.1 2.6
v -2.7 0.1 2.5
v -2.6 0.1 2.5
v -1.8 0.1 2.5
v -1.7 0.1 2.5
v -2.7 0.1 1.7
v -2.6 0.1 1.7
v -1.8 0.1 1.7
v -1.7 0.1 1.7
v -2.6 0.1 1.6
v -1.8 0.1 1.6
v -2.5 0.2 2.7
v -1.9 0.2 2.7
v -2.5 0.2 2.6
v -1.9 0.2 2.6
v -2.6 0.2 2.5
v -1.8 0.2 2.5
v -2.8 0.2 2.4
v -2.7 0.2 2.4
v -2.5 0.2 2.4
v -1.9 0.2 2.4
v -1.7 0.2 2.4
v -1.6 0.2 2.4
v -2.8 0.2 1.8
v -2.7 0.2 1.8
v -2.5 0.2 1.8
v -1.9 0.2 1.8
v -1.7 0.2 1.8
v -1.6 0.2 1.8
v -2.6 0.2 1.7
v -1.8 0.2 1.7
v -2.5 0.2 1.6
v -1.9 0.2 1.6
v -2.5 0.2 1.5
v -1.9 0.2 1.5
v -2.6 0.3 2.8
v -1.8 0.3 2.8
v -2.7 0.3 2.7
v -2.6 0.3 2.7
v -2.5 0.3 2.7
v -1.9 0.3 2.7
v -1.8 0.3 2.7
v -1.7 0.3 2.7
v -2.8 0.3 2.6
v -2.7 0.3 2.6
v -2.6 0.3 2.6
v -2.5 0.3 2.6
v -1.9 0.3 2.6
v -1.8 0.3 2.6
v -1.7 0.3 2.6
v -1.6 0.3 2.6
v -2.9 0.3 2.5
v -2.8 0.3 2.5
v -2.7 0.3 2.5
v -2.6 0.3 2.5
v -1.8 0.3 2.5
v -1.7 0.3 2.5
v -1.6 0.3 2.5
v -1.5 0.3 2.5
v -2.8 0.3 2.4
v -2.7 0.3 2.4
v -2.5 0.3 2.4
v -1.9 0.3 2.4
v -1.7 0.3 2.4
v -1.6 0.3 2.4
v -2.4 0.3 2.3
v -2 0.3 2.3
v -2.4 0.3 1.9
v -2 0.3 1.9
v -2.8 0.3 1.8
v -2.7 0.3 1.8
v -2.5 0.3 1.8
v -1.9 0.3 1.8
v -1.7 0.3 1.8
v -1.6 0.3 1.8
v -2.9 0.3 1.7
v -2.8 0.3 1.7
v -2.7 0.3 1.7
v -2.6 0.3 1.7
v -1.8 0.3 1.7
v -1.7 0.3 1.7
v -1.6 0.3 1.7
v -1.5 0.3 1.7
v -2.8 0.3 1.6
v -2.7 0.3 1.6
v -2.6 0.3 1.6
v -2.5 0.3 1.6
v -1.9 0.3 1.6
v -1.8 0.3 1.6
v -1.7 0.3 1.6
v -1.6 0.3 1.6
v -2.7 0.3 1.5
v -2.6 0.3 1.5
v -2.5 0.3 1.5
v -1.9 0.3 1.5
v -1.8 0.3 1.5
v -1.7 0.3 1.5
v -2.6 0.3 1.4
v -1.8 0.3 1.4
v -3.1 0.4 3
v -1.3 0.4 3
v -2.6 0.4 2.9
v -1.8 0.4 2.9
v -2.7 0.4 2.8
v -2.6 0.4 2.8
v -1.8 0.4 2.8
v -1.7 0.4 2.8
v -2.8 0.4 2.7
v -2.7 0.4 2.7
v -2.6 0.4 2.7
v -1.8 0.4 2.7
v -1.7 0.4 2.7
v -1.6 0.4 2.7
v -2.9 0.4 2.6
v -2.8 0.4 2.6
v -2.7 0.4 2.6
v -1.7 0.4 2.6
v -1.6 0.4 2.6
v -1.5 0.4 2.6
v -3 0.4 2.5
v -2.9 0.4 2.5
v -2.8 0.4 2.5
v -1.6 0.4 2.5
v -1.5 0.4 2.5
v -1.4 0.4 2.5
v -2.4 0.4 2.3
v -2 0.4 2.3
v -2.4 0.4 1.9
v -2 0.4 1.9
v -3 0.4 1.7
v -2.9 0.4 1.7
v -2.8 0.4 1.7
v -1.6 0.4 1.7
v -1.5 0.4 1.7
v -1.4 0.4 1.7
v -2.9 0.4 1.6
v -2.8 0.4 1.6
v -2.7 0.4 1.6
v -1.7 0.4 1.6
v -1.6 0.4 1.6
v -1.5 0.4 1.6
v -2.8 0.4 1.5
v -2.7 0.4 1.5
v -2.6 0.4 1.5
v -1.8 0.4 1.5
v -1.7 0.4 1.5
v -1.6 0.4 1.5
v -2.7 0.4 1.4
v -2.6 0.4 1.4
v -1.8 0.4 1.4
v -1.7 0.4 1.4
v -2.6 0.4 1.3
v -1.8 0.4 1.3
v -3.1 0.4 1.2
v -1.3 0.4 1.2

# faces
f 3/1/1 2/1/1 1/1/1
f 4/1/1 2/1/1 3/1/1
f 7/3/1 6/3/1 5/3/1
f 8/3/1 6/3/1 7/3/1
f 11/3/1 10/3/1 9/3/1
f 12/3/1 10/3/1 11/3/1
f 15/3/1 14/3/1 13/3/1
f 16/3/1 14/3/1 15/3/1
f 21/2/1 18/2/1 17/2/1
f 22/2/1 18/2/1 21/2/1
f 23/2/1 20/2/1 19/2/1
f 24/2/1 20/2/1 23/2/1
f 29/2/1 26/2/1 25/2/1
f 30/2/1 28/2/1 27/2/1
f 33/2/1 29/2/1 25/2/1
f 34/2/1 29/2/1 33/2/1
f 35/2/1 28/2/1 30/2/1
f 36/2/1 28/2/1 35/2/1
f 39/3/1 32/3/1 31/3/1
f 40/3/1 32/3/1 39/3/1
f 41/3/1 38/3/1 37/3/1
f 42/3/1 38/3/1 41/3/1
f 45/2/1 44/2/1 43/2/1
f 46/2/1 44/2/1 45/2/1
f 49/2/1 45/2/1 43/2/1
f 50/2/1 45/2/1 49/2/1
f 51/2/1 44/2/1 46/2/1
f 52/2/1 44/2/1 51/2/1
f 55/3/1 48/3/1 47/3/1
f 56/3/1 48/3/1 55/3/1
f 57/3/1 54/3/1 53/3/1
f 58/3/1 54/3/1 57/3/1
f 63/2/1 60/2/1 59/2/1
f 64/2/1 60/2/1 63/2/1
f 67/3/1 62/3/1 61/3/1
f 68/3/1 62/3/1 67/3/1
f 69/3/1 66/3/1 65/3/1
f 70/3/1 66/3/1 69/3/1
f 73/3/1 72/3/1 71/3/1
f 74/3/1 72/3/1 73/3/1
f 75/3/2 76/3/2 77/3/2
f 77/3/2 76/3/2 78/3/2
f 79/2/2 80/2/2 83/2/2
f 83/2/2 80/2/2 84/2/2
f 81/3/2 82/3/2 87/3/2
f 87/3/2 82/3/2 88/3/2
f 85/3/2 86/3/2 89/3/2
f 89/3/2 86/3/2 90/3/2
f 91/2/2 92/2/2 93/2/2
f 93/2/2 92/2/2 94/2/2
f 91/2/2 93/2/2 97/2/2
f 97/2/2 93/2/2 98/2/2
f 94/2/2 92/2/2 99/2/2
f 99/2/2 92/2/2 100/2/2
f 95/3/2 96/3/2 103/3/2
f 103/3/2 96/3/2 104/3/2
f 101/3/2 102/3/2 105/3/2
f 105/3/2 102/3/2 106/3/2
f 107/2/2 108/2/2 111/2/2
f 109/2/2 110/2/2 112/2/2
f 107/2/2 111/2/2 115/2/2
f 115/2/2 111/2/2 116/2/2
f 112/2/2 110/2/2 117/2/2
f 117/2/2 110/2/2 118/2/2
f 113/3/2 114/3/2 121/3/2
f 121/3/2 114/3/2 122/3/2
f 119/3/2 120/3/2 123/3/2
f 123/3/2 120/3/2 124/3/2
f 125/2/2 126/2/2 129/2/2
f 129/2/2 126/2/2 130/2/2
f 127/2/2 128/2/2 131/2/2
f 131/2/2 128/2/2 132/2/2
f 133/3/2 134/3/2 135/3/2
f 135/3/2 134/3/2 136/3/2
f 137/3/2 138/3/2 139/3/2
f 139/3/2 138/3/2 140/3/2
f 141/3/2 142/3/2 143/3/2
f 143/3/2 142/3/2 144/3/2
f 145/1/2 146/1/2 147/1/2
f 147/1/2 146/1/2 148/1/2
f 151/1/3 150/1/3 149/1/3
f 152/1/3 150/1/3 151/1/3
f 155/3/3 154/3/3 153/3/3
f 156/3/3 154/3/3 155/3/3
f 159/3/3 158/3/3 157/3/3
f 160/3/3 158/3/3 159/3/3
f 163/3/3 162/3/3 161/3/3
f 164/3/3 162/3/3 163/3/3
f 167/2/3 166/2/3 165/2/3
f 168/2/3 166/2/3 167/2/3
f 171/2/3 170/2/3 169/2/3
f 172/2/3 170/2/3 171/2/3
f 175/3/3 174/3/3 173/3/3
f 176/3/3 174/3/3 175/3/3
f 179/2/3 178/2/3 177/2/3
f 180/2/3 178/2/3 179/2/3
f 181/2/3 178/2/3 180/2/3
f 185/2/3 183/2/3 182/2/3
f 185/2/3 184/2/3 183/2/3
f 186/2/3 184/2/3 185/2/3
f 189/3/3 188/3/3 187/3/3
f 190/3/3 188/3/3 189/3/3
f 193/3/3 192/3/3 191/3/3
f 194/3/3 192/3/3 193/3/3
f 197/2/3 196/2/3 195/2/3
f 198/2/3 196/2/3 197/2/3
f 199/2/3 197/2/3 195/2/3
f 201/2/3 199/2/3 195/2/3
f 201/2/3 200/2/3 199/2/3
f 202/2/3 200/2/3 201/2/3
f 205/3/3 204/3/3 203/3/3
f 206/3/3 204/3/3 205/3/3
f 209/3/3 208/3/3 207/3/3
f 210/3/3 208/3/3 209/3/3
f 213/2/3 212/2/3 211/2/3
f 214/2/3 212/2/3 213/2/3
f 217/3/3 216/3/3 215/3/3
f 218/3/3 216/3/3 217/3/3
f 221/3/3 220/3/3 219/3/3
f 222/3/3 220/3/3 221/3/3
f 223/3/4 224/3/4 225/3/4
f 225/3/4 224/3/4 226/3/4
f 227/3/4 228/3/4 229/3/4
f 229/3/4 228/3/4 230/3/4
f 231/2/4 232/2/4 233/2/4
f 233/2/4 232/2/4 234/2/4
f 235/3/4 236/3/4 237/3/4
f 237/3/4 236/3/4 238/3/4
f 239/3/4 240/3/4 241/3/4
f 241/3/4 240/3/4 242/3/4
f 243/2/4 244/2/4 245/2/4
f 245/2/4 244/2/4 246/2/4
f 243/2/4 245/2/4 247/2/4
f 243/2/4 247/2/4 249/2/4
f 247/2/4 248/2/4 249/2/4
f 249/2/4 248/2/4 250/2/4
f 251/3/4 252/3/4 253/3/4
f 253/3/4 252/3/4 254/3/4
f 255/3/4 256/3/4 257/3/4
f 257/3/4 256/3/4 258/3/4
f 259/2/4 260/2/4 261/2/4
f 261/2/4 260/2/4 262/2/4
f 262/2/4 260/2/4 263/2/4
f 264/2/4 265/2/4 267/2/4
f 265/2/4 266/2/4 267/2/4
f 267/2/4 266/2/4 268/2/4
f 269/3/4 270/3/4 271/3/4
f 271/3/4 270/3/4 272/3/4
f 273/2/4 274/2/4 275/2/4
f 275/2/4 274/2/4 276/2/4
f 277/2/4 278/2/4 279/2/4
f 279/2/4 278/2/4 280/2/4
f 281/3/4 282/3/4 283/3/4
f 283/3/4 282/3/4 284/3/4
f 285/3/4 286/3/4 287/3/4
f 287/3/4 286/3/4 288/3/4
f 289/3/4 290/3/4 291/3/4
f 291/3/4 290/3/4 292/3/4
f 293/1/4 294/1/4 295/1/4
f 295/1/4 294/1/4 296/1/4
f 299/1/5 298/1/5 297/1/5
f 300/1/5 298/1/5 299/1/5
f 301/1/5 299/1/5 297/1/5
f 302/2/5 300/2/5 299/2/5
f 302/1/5 299/1/5 301/1/5
f 303/2/5 300/2/5 302/2/5
f 304/2/5 300/2/5 303/2/5
f 305/1/5 298/1/5 300/1/5
f 305/2/5 300/2/5 304/2/5
f 306/1/5 298/1/5 305/1/5
f 307/2/5 302/2/5 301/2/5
f 307/2/5 303/2/5 302/2/5
f 308/3/5 304/3/5 303/3/5
f 308/2/5 303/2/5 307/2/5
f 309/2/5 306/2/5 305/2/5
f 309/3/5 304/3/5 308/3/5
f 309/2/5 305/2/5 304/2/5
f 310/2/5 306/2/5 309/2/5
f 311/2/5 307/2/5 301/2/5
f 311/3/5 308/3/5 307/3/5
f 311/3/5 310/3/5 309/3/5
f 311/3/5 309/3/5 308/3/5
f 312/3/5 310/3/5 311/3/5
f 313/3/5 310/3/5 312/3/5
f 314/2/5 306/2/5 310/2/5
f 314/3/5 310/3/5 313/3/5
f 315/1/5 301/1/5 297/1/5
f 315/2/5 311/2/5 301/2/5
f 315/2/5 312/2/5 311/2/5
f 316/2/5 312/2/5 315/2/5
f 317/3/5 313/3/5 312/3/5
f 317/2/5 312/2/5 316/2/5
f 318/2/5 314/2/5 313/2/5
f 318/3/5 313/3/5 317/3/5
f 319/2/5 306/2/5 314/2/5
f 319/2/5 314/2/5 318/2/5
f 320/1/5 298/1/5 306/1/5
f 320/2/5 306/2/5 319/2/5
f 321/1/5 316/1/5 315/1/5
f 321/2/5 318/2/5 317/2/5
f 321/2/5 319/2/5 318/2/5
f 321/2/5 317/2/5 316/2/5
f 322/1/5 320/1/5 319/1/5
f 322/2/5 319/2/5 321/2/5
f 323/1/5 321/1/5 315/1/5
f 323/1/5 315/1/5 297/1/5
f 323/1/5 322/1/5 321/1/5
f 324/1/5 298/1/5 320/1/5
f 324/1/5 322/1/5 323/1/5
f 324/1/5 320/1/5 322/1/5
f 325/2/6 326/2/6 328/2/6
f 328/2/6 326/2/6 329/2/6
f 327/2/6 328/2/6 331/2/6
f 331/2/6 328/2/6 332/2/6
f 329/2/6 330/2/6 333/2/6
f 333/2/6 330/2/6 334/2/6
f 332/2/6 333/2/6 335/2/6
f 335/2/6 333/2/6 336/2/6
f 337/2/6 338/2/6 339/2/6
f 339/2/6 338/2/6 340/2/6
f 341/3/6 342/3/6 345/3/6
f 345/3/6 342/3/6 346/3/6
f 343/2/6 344/2/6 349/2/6
f 349/2/6 344/2/6 350/2/6
f 341/3/6 345/3/6 351/3/6
f 346/3/6 342/3/6 352/3/6
f 347/2/6 348/2/6 353/2/6
f 353/2/6 348/2/6 354/2/6
f 351/3/6 352/3/6 355/3/6
f 341/3/6 351/3/6 355/3/6
f 352/3/6 342/3/6 356/3/6
f 355/3/6 352/3/6 356/3/6
f 357/2/6 358/2/6 359/2/6
f 359/2/6 358/2/6 360/2/6
f 361/2/6 362/2/6 364/2/6
f 364/2/6 362/2/6 365/2/6
f 365/2/6 362/2/6 366/2/6
f 366/2/6 362/2/6 367/2/6
f 363/2/6 364/2/6 370/2/6
f 364/2/6 365/2/6 370/2/6
f 370/2/6 365/2/6 371/2/6
f 371/2/6 365/2/6 372/2/6
f 366/2/6 367/2/6 373/2/6
f 367/2/6 368/2/6 373/2/6
f 373/2/6 368/2/6 374/2/6
f 374/2/6 368/2/6 375/2/6
f 370/2/6 371/2/6 378/2/6
f 369/2/6 370/2/6 378/2/6
f 378/2/6 371/2/6 379/2/6
f 379/2/6 371/2/6 380/2/6
f 375/2/6 376/2/6 381/2/6
f 374/2/6 375/2/6 381/2/6
f 381/2/6 376/2/6 382/2/6
f 382/2/6 376/2/6 383/2/6
f 378/2/6 379/2/6 385/2/6
f 377/2/6 378/2/6 385/2/6
f 385/2/6 379/2/6 386/2/6
f 383/2/6 384/2/6 389/2/6
f 382/2/6 383/2/6 389/2/6
f 389/2/6 384/2/6 390/2/6
f 387/3/6 388/3/6 391/3/6
f 391/3/6 388/3/6 392/3/6
f 387/3/6 391/3/6 393/3/6
f 392/3/6 388/3/6 394/3/6
f 377/2/6 385/2/6 395/2/6
f 393/3/6 394/3/6 397/3/6
f 387/3/6 393/3/6 397/3/6
f 394/3/6 388/3/6 398/3/6
f 397/3/6 394/3/6 398/3/6
f 390/2/6 384/2/6 400/2/6
f 395/2/6 396/2/6 401/2/6
f 377/2/6 395/2/6 401/2/6
f 401/2/6 396/2/6 402/2/6
f 402/2/6 396/2/6 403/2/6
f 399/2/6 400/2/6 406/2/6
f 400/2/6 384/2/6 407/2/6
f 406/2/6 400/2/6 407/2/6
f 407/2/6 384/2/6 408/2/6
f 403/2/6 404/2/6 409/2/6
f 402/2/6 403/2/6 409/2/6
f 409/2/6 404/2/6 410/2/6
f 410/2/6 404/2/6 411/2/6
f 405/2/6 406/2/6 414/2/6
f 406/2/6 407/2/6 414/2/6
f 414/2/6 407/2/6 415/2/6
f 415/2/6 407/2/6 416/2/6
f 411/2/6 412/2/6 417/2/6
f 410/2/6 411/2/6 417/2/6
f 417/2/6 412/2/6 418/2/6
f 418/2/6 412/2/6 419/2/6
f 414/2/6 415/2/6 420/2/6
f 413/2/6 414/2/6 420/2/6
f 420/2/6 415/2/6 421/2/6
f 421/2/6 415/2/6 422/2/6
f 418/2/6 419/2/6 423/2/6
f 420/2/6 421/2/6 423/2/6
f 419/2/6 420/2/6 423/2/6
f 423/2/6 421/2/6 424/2/6
f 425/1/6 426/1/6 427/1/6
f 427/1/6 426/1/6 428/1/6
f 425/1/6 427/1/6 429/1/6
f 427/3/6 428/3/6 430/3/6
f 429/1/6 427/1/6 430/1/6
f 428/1/6 426/1/6 431/1/6
f 430/3/6 428/3/6 431/3/6
f 431/1/6 426/1/6 432/1/6
f 425/1/6 429/1/6 433/1/6
f 429/3/6 430/3/6 434/3/6
f 433/1/6 429/1/6 434/1/6
f 434/3/6 430/3/6 435/3/6
f 431/3/6 432/3/6 436/3/6
f 432/1/6 426/1/6 437/1/6
f 436/3/6 432/3/6 437/3/6
f 437/1/6 426/1/6 438/1/6
f 425/1/6 433/1/6 439/1/6
f 433/3/6 434/3/6 440/3/6
f 439/1/6 433/1/6 440/1/6
f 440/3/6 434/3/6 441/3/6
f 437/3/6 438/3/6 442/3/6
f 438/1/6 426/1/6 443/1/6
f 442/3/6 438/3/6 443/3/6
f 443/1/6 426/1/6 444/1/6
f 425/1/6 439/1/6 445/1/6
f 439/3/6 440/3/6 446/3/6
f 445/1/6 439/1/6 446/1/6
f 446/3/6 440/3/6 447/3/6
f 443/3/6 444/3/6 448/3/6
f 444/1/6 426/1/6 449/1/6
f 448/3/6 444/3/6 449/3/6
f 449/1/6 426/1/6 450/1/6
f 451/3/6 452/3/6 453/3/6
f 453/3/6 452/3/6 454/3/6
f 425/1/6 445/1/6 455/1/6
f 445/3/6 446/3/6 455/3/6
f 455/3/6 446/3/6 456/3/6
f 449/3/6 450/3/6 459/3/6
f 450/1/6 426/1/6 460/1/6
f 459/3/6 450/3/6 460/3/6
f 456/3/6 457/3/6 461/3/6
f 455/1/6 456/1/6 461/1/6
f 461/3/6 457/3/6 462/3/6
f 458/3/6 459/3/6 465/3/6
f 459/1/6 460/1/6 466/1/6
f 465/3/6 459/3/6 466/3/6
f 462/3/6 463/3/6 467/3/6
f 461/1/6 462/1/6 467/1/6
f 467/3/6 463/3/6 468/3/6
f 464/3/6 465/3/6 471/3/6
f 465/1/6 466/1/6 472/1/6
f 471/3/6 465/3/6 472/3/6
f 468/3/6 469/3/6 473/3/6
f 467/1/6 468/1/6 473/1/6
f 473/3/6 469/3/6 474/3/6
f 470/3/6 471/3/6 475/3/6
f 471/1/6 472/1/6 476/1/6
f 475/3/6 471/3/6 476/3/6
f 473/1/6 474/1/6 477/1/6
f 474/3/6 475/3/6 477/3/6
f 475/1/6 476/1/6 478/1/6
f 477/3/6 475/3/6 478/3/6
f 425/1/6 455/1/6 479/1/6
f 455/1/6 461/1/6 479/1/6
f 477/1/6 478/1/6 479/1/6
f 461/1/6 467/1/6 479/1/6
f 467/1/6 473/1/6 479/1/6
f 473/1/6 477/1/6 479/1/6
f 466/1/6 460/1/6 480/1/6
f 479/1/6 478/1/6 480/1/6
f 460/1/6 426/1/6 480/1/6
f 472/1/6 466/1/6 480/1/6
f 478/1/6 476/1/6 480/1/6
f 476/1/6 472/1/6 480/1/6
