# MagicaVoxel @ Ephtracy

# group
o 

# material
mtllib robot_ground-0.mtl
usemtl palette

# normals
vn -1 0 0
vn 1 0 0
vn 0 0 1
vn 0 0 -1
vn 0 -1 0
vn 0 1 0

# texcoords
vt 0.306641 0.5
vt 0.986328 0.5
vt 0.994141 0.5

# verts
v -5.1 0 -0.2
v -5.1 0 -0.8
v -5.1 0 -0.9
v -5.1 0 -1
v -5.1 0.1 -0.2
v -5.1 0.1 -0.8
v -5.1 0.1 -0.9
v -5.1 0.1 -1
v -5 0 -0.1
v -5 0 -0.2
v -5 0 -1
v -5 0 -1.1
v -5 0.1 -0.1
v -5 0.1 -0.2
v -5 0.1 -1
v -5 0.1 -1.1
v -4.9 0 0
v -4.9 0 -0.1
v -4.9 0 -0.2
v -4.9 0 -0.3
v -4.9 0 -1.1
v -4.9 0 -1.2
v -4.9 0.1 0
v -4.9 0.1 -0.1
v -4.9 0.1 -0.2
v -4.9 0.1 -0.3
v -4.9 0.1 -1.1
v -4.9 0.1 -1.2
v -4.8 0 0.1
v -4.8 0 0
v -4.8 0 -0.3
v -4.8 0 -0.4
v -4.8 0 -1.2
v -4.8 0 -1.3
v -4.8 0.1 0.1
v -4.8 0.1 0
v -4.8 0.1 -0.3
v -4.8 0.1 -0.4
v -4.8 0.1 -1.2
v -4.8 0.1 -1.3
v -4.7 0 0.2
v -4.7 0 0.1
v -4.7 0 -0.4
v -4.7 0 -0.5
v -4.7 0 -1.3
v -4.7 0 -1.4
v -4.7 0.1 0.2
v -4.7 0.1 0.1
v -4.7 0.1 -0.4
v -4.7 0.1 -0.5
v -4.7 0.1 -1.3
v -4.7 0.1 -1.4
v -4.6 0 -0.5
v -4.6 0 -0.6
v -4.6 0.1 -0.5
v -4.6 0.1 -0.6
v -4.5 0 -0.6
v -4.5 0 -0.7
v -4.5 0.1 -0.6
v -4.5 0.1 -0.7
v -4.3 0 -0.3
v -4.3 0 -0.4
v -4.3 0.1 -0.3
v -4.3 0.1 -0.4
v -4.2 0 -0.2
v -4.2 0 -0.3
v -4.2 0 -0.8
v -4.2 0 -1.3
v -4.2 0.1 -0.2
v -4.2 0.1 -0.3
v -4.2 0.1 -0.8
v -4.2 0.1 -1.3
v -4.1 0 -0.1
v -4.1 0 -0.2
v -4.1 0.1 -0.1
v -4.1 0.1 -0.2
v -4 0 0
v -4 0 -0.1
v -4 0.1 0
v -4 0.1 -0.1
v -3.9 0 0.1
v -3.9 0 0
v -3.9 0.1 0.1
v -3.9 0.1 0
v -3.6 0 -0.5
v -3.6 0 -1
v -3.6 0.1 -0.5
v -3.6 0.1 -1
v -5 0 -0.2
v -5 0 -0.7
v -5 0.1 -0.2
v -5 0.1 -0.7
v -4.7 0 -1.2
v -4.7 0 -1.3
v -4.7 0.1 -1.2
v -4.7 0.1 -1.3
v -4.6 0 -1.1
v -4.6 0 -1.2
v -4.6 0.1 -1.1
v -4.6 0.1 -1.2
v -4.5 0 -1
v -4.5 0 -1.1
v -4.5 0.1 -1
v -4.5 0.1 -1.1
v -4.4 0 0.1
v -4.4 0 -0.4
v -4.4 0 -0.9
v -4.4 0 -1
v -4.4 0.1 0.1
v -4.4 0.1 -0.4
v -4.4 0.1 -0.9
v -4.4 0.1 -1
v -4.3 0 -0.8
v -4.3 0 -0.9
v -4.3 0.1 -0.8
v -4.3 0.1 -0.9
v -4.1 0 -0.5
v -4.1 0 -0.6
v -4.1 0.1 -0.5
v -4.1 0.1 -0.6
v -4 0 -0.6
v -4 0 -0.7
v -4 0.1 -0.6
v -4 0.1 -0.7
v -3.9 0 0.2
v -3.9 0 0.1
v -3.9 0 -0.7
v -3.9 0 -0.8
v -3.9 0 -1.3
v -3.9 0 -1.4
v -3.9 0.1 0.2
v -3.9 0.1 0.1
v -3.9 0.1 -0.7
v -3.9 0.1 -0.8
v -3.9 0.1 -1.3
v -3.9 0.1 -1.4
v -3.8 0 0.1
v -3.8 0 0
v -3.8 0 -0.8
v -3.8 0 -0.9
v -3.8 0 -1.2
v -3.8 0 -1.3
v -3.8 0.1 0.1
v -3.8 0.1 0
v -3.8 0.1 -0.8
v -3.8 0.1 -0.9
v -3.8 0.1 -1.2
v -3.8 0.1 -1.3
v -3.7 0 0
v -3.7 0 -0.1
v -3.7 0 -0.9
v -3.7 0 -1
v -3.7 0 -1.1
v -3.7 0 -1.2
v -3.7 0.1 0
v -3.7 0.1 -0.1
v -3.7 0.1 -0.9
v -3.7 0.1 -1
v -3.7 0.1 -1.1
v -3.7 0.1 -1.2
v -3.6 0 -1
v -3.6 0 -1.1
v -3.6 0.1 -1
v -3.6 0.1 -1.1
v -3.5 0 -0.1
v -3.5 0 -0.4
v -3.5 0 -1
v -3.5 0.1 -0.1
v -3.5 0.1 -0.4
v -3.5 0.1 -1
v -4.7 0 0.2
v -4.7 0.1 0.2
v -4.6 0 0.2
v -4.6 0.1 0.2
v -4.5 0 0.2
v -4.5 0.1 0.2
v -3.9 0 0.2
v -3.9 0.1 0.2
v -4.8 0 0.1
v -4.8 0.1 0.1
v -4.7 0 0.1
v -4.7 0.1 0.1
v -3.9 0 0.1
v -3.9 0.1 0.1
v -3.8 0 0.1
v -3.8 0.1 0.1
v -4.9 0 0
v -4.9 0.1 0
v -4.8 0 0
v -4.8 0.1 0
v -4 0 0
v -4 0.1 0
v -3.9 0 0
v -3.9 0.1 0
v -3.8 0 0
v -3.8 0.1 0
v -3.7 0 0
v -3.7 0.1 0
v -5 0 -0.1
v -5 0.1 -0.1
v -4.9 0 -0.1
v -4.9 0.1 -0.1
v -4.1 0 -0.1
v -4.1 0.1 -0.1
v -4 0 -0.1
v -4 0.1 -0.1
v -3.7 0 -0.1
v -3.7 0.1 -0.1
v -3.5 0 -0.1
v -3.5 0.1 -0.1
v -5.1 0 -0.2
v -5.1 0.1 -0.2
v -5 0 -0.2
v -5 0.1 -0.2
v -4.2 0 -0.2
v -4.2 0.1 -0.2
v -4.1 0 -0.2
v -4.1 0.1 -0.2
v -4.3 0 -0.3
v -4.3 0.1 -0.3
v -4.2 0 -0.3
v -4.2 0.1 -0.3
v -4.4 0 -0.4
v -4.4 0.1 -0.4
v -4.3 0 -0.4
v -4.3 0.1 -0.4
v -4.1 0 -0.6
v -4.1 0.1 -0.6
v -4 0 -0.6
v -4 0.1 -0.6
v -5 0 -0.7
v -5 0.1 -0.7
v -4.5 0 -0.7
v -4.5 0.1 -0.7
v -4 0 -0.7
v -4 0.1 -0.7
v -3.9 0 -0.7
v -3.9 0.1 -0.7
v -3.9 0 -0.8
v -3.9 0.1 -0.8
v -3.8 0 -0.8
v -3.8 0.1 -0.8
v -3.8 0 -0.9
v -3.8 0.1 -0.9
v -3.7 0 -0.9
v -3.7 0.1 -0.9
v -3.7 0 -1
v -3.7 0.1 -1
v -3.6 0 -1
v -3.6 0.1 -1
v -4.7 0 -1.3
v -4.7 0.1 -1.3
v -4.2 0 -1.3
v -4.2 0.1 -1.3
v -4.4 0 0.1
v -4.4 0.1 0.1
v -3.9 0 0.1
v -3.9 0.1 0.1
v -5 0 -0.2
v -5 0.1 -0.2
v -4.9 0 -0.2
v -4.9 0.1 -0.2
v -4.9 0 -0.3
v -4.9 0.1 -0.3
v -4.8 0 -0.3
v -4.8 0.1 -0.3
v -4.8 0 -0.4
v -4.8 0.1 -0.4
v -4.7 0 -0.4
v -4.7 0.1 -0.4
v -4.7 0 -0.5
v -4.7 0.1 -0.5
v -4.6 0 -0.5
v -4.6 0.1 -0.5
v -4.1 0 -0.5
v -4.1 0.1 -0.5
v -3.6 0 -0.5
v -3.6 0.1 -0.5
v -4.6 0 -0.6
v -4.6 0.1 -0.6
v -4.5 0 -0.6
v -4.5 0.1 -0.6
v -4.3 0 -0.8
v -4.3 0.1 -0.8
v -4.2 0 -0.8
v -4.2 0.1 -0.8
v -4.4 0 -0.9
v -4.4 0.1 -0.9
v -4.3 0 -0.9
v -4.3 0.1 -0.9
v -5.1 0 -1
v -5.1 0.1 -1
v -5 0 -1
v -5 0.1 -1
v -4.5 0 -1
v -4.5 0.1 -1
v -4.4 0 -1
v -4.4 0.1 -1
v -3.6 0 -1
v -3.6 0.1 -1
v -3.5 0 -1
v -3.5 0.1 -1
v -5 0 -1.1
v -5 0.1 -1.1
v -4.9 0 -1.1
v -4.9 0.1 -1.1
v -4.6 0 -1.1
v -4.6 0.1 -1.1
v -4.5 0 -1.1
v -4.5 0.1 -1.1
v -3.7 0 -1.1
v -3.7 0.1 -1.1
v -3.6 0 -1.1
v -3.6 0.1 -1.1
v -4.9 0 -1.2
v -4.9 0.1 -1.2
v -4.8 0 -1.2
v -4.8 0.1 -1.2
v -4.7 0 -1.2
v -4.7 0.1 -1.2
v -4.6 0 -1.2
v -4.6 0.1 -1.2
v -3.8 0 -1.2
v -3.8 0.1 -1.2
v -3.7 0 -1.2
v -3.7 0.1 -1.2
v -4.8 0 -1.3
v -4.8 0.1 -1.3
v -4.7 0 -1.3
v -4.7 0.1 -1.3
v -3.9 0 -1.3
v -3.9 0.1 -1.3
v -3.8 0 -1.3
v -3.8 0.1 -1.3
v -4.7 0 -1.4
v -4.7 0.1 -1.4
v -4.1 0 -1.4
v -4.1 0.1 -1.4
v -4 0 -1.4
v -4 0.1 -1.4
v -3.9 0 -1.4
v -3.9 0.1 -1.4
v -4.7 0 0.2
v -4.6 0 0.2
v -4.5 0 0.2
v -3.9 0 0.2
v -4.8 0 0.1
v -4.7 0 0.1
v -4.6 0 0.1
v -4.4 0 0.1
v -3.9 0 0.1
v -3.8 0 0.1
v -4.9 0 0
v -4.8 0 0
v -4.7 0 0
v -4 0 0
v -3.9 0 0
v -3.8 0 0
v -3.7 0 0
v -5 0 -0.1
v -4.9 0 -0.1
v -4.8 0 -0.1
v -4.1 0 -0.1
v -4 0 -0.1
v -3.9 0 -0.1
v -3.8 0 -0.1
v -3.7 0 -0.1
v -3.5 0 -0.1
v -5.1 0 -0.2
v -5 0 -0.2
v -4.9 0 -0.2
v -4.8 0 -0.2
v -4.2 0 -0.2
v -4.1 0 -0.2
v -4 0 -0.2
v -4.9 0 -0.3
v -4.8 0 -0.3
v -4.7 0 -0.3
v -4.3 0 -0.3
v -4.2 0 -0.3
v -4.1 0 -0.3
v -4.8 0 -0.4
v -4.7 0 -0.4
v -4.6 0 -0.4
v -4.4 0 -0.4
v -4.3 0 -0.4
v -4.2 0 -0.4
v -3.5 0 -0.4
v -4.7 0 -0.5
v -4.6 0 -0.5
v -4.5 0 -0.5
v -4.4 0 -0.5
v -4.2 0 -0.5
v -4.1 0 -0.5
v -3.6 0 -0.5
v -4.6 0 -0.6
v -4.5 0 -0.6
v -4.1 0 -0.6
v -4 0 -0.6
v -5 0 -0.7
v -4.5 0 -0.7
v -4.4 0 -0.7
v -4.2 0 -0.7
v -4.1 0 -0.7
v -4 0 -0.7
v -3.9 0 -0.7
v -5.1 0 -0.8
v -4.4 0 -0.8
v -4.3 0 -0.8
v -4.2 0 -0.8
v -4 0 -0.8
v -3.9 0 -0.8
v -3.8 0 -0.8
v -5.1 0 -0.9
v -5 0 -0.9
v -4.5 0 -0.9
v -4.4 0 -0.9
v -4.3 0 -0.9
v -3.9 0 -0.9
v -3.8 0 -0.9
v -3.7 0 -0.9
v -5.1 0 -1
v -5 0 -1
v -4.9 0 -1
v -4.6 0 -1
v -4.5 0 -1
v -4.4 0 -1
v -3.8 0 -1
v -3.7 0 -1
v -3.6 0 -1
v -3.5 0 -1
v -5 0 -1.1
v -4.9 0 -1.1
v -4.8 0 -1.1
v -4.7 0 -1.1
v -4.6 0 -1.1
v -4.5 0 -1.1
v -3.8 0 -1.1
v -3.7 0 -1.1
v -3.6 0 -1.1
v -4.9 0 -1.2
v -4.8 0 -1.2
v -4.7 0 -1.2
v -4.6 0 -1.2
v -3.9 0 -1.2
v -3.8 0 -1.2
v -3.7 0 -1.2
v -4.8 0 -1.3
v -4.7 0 -1.3
v -4.2 0 -1.3
v -4 0 -1.3
v -3.9 0 -1.3
v -3.8 0 -1.3
v -4.7 0 -1.4
v -4.1 0 -1.4
v -4 0 -1.4
v -3.9 0 -1.4
v -4.7 0.1 0.2
v -4.6 0.1 0.2
v -4.5 0.1 0.2
v -3.9 0.1 0.2
v -4.8 0.1 0.1
v -4.7 0.1 0.1
v -4.6 0.1 0.1
v -4.4 0.1 0.1
v -3.9 0.1 0.1
v -3.8 0.1 0.1
v -4.9 0.1 0
v -4.8 0.1 0
v -4.7 0.1 0
v -4 0.1 0
v -3.9 0.1 0
v -3.8 0.1 0
v -3.7 0.1 0
v -5 0.1 -0.1
v -4.9 0.1 -0.1
v -4.8 0.1 -0.1
v -4.1 0.1 -0.1
v -4 0.1 -0.1
v -3.9 0.1 -0.1
v -3.8 0.1 -0.1
v -3.7 0.1 -0.1
v -3.5 0.1 -0.1
v -5.1 0.1 -0.2
v -5 0.1 -0.2
v -4.9 0.1 -0.2
v -4.8 0.1 -0.2
v -4.2 0.1 -0.2
v -4.1 0.1 -0.2
v -4 0.1 -0.2
v -4.9 0.1 -0.3
v -4.8 0.1 -0.3
v -4.7 0.1 -0.3
v -4.3 0.1 -0.3
v -4.2 0.1 -0.3
v -4.1 0.1 -0.3
v -4.8 0.1 -0.4
v -4.7 0.1 -0.4
v -4.6 0.1 -0.4
v -4.4 0.1 -0.4
v -4.3 0.1 -0.4
v -4.2 0.1 -0.4
v -3.5 0.1 -0.4
v -4.7 0.1 -0.5
v -4.6 0.1 -0.5
v -4.5 0.1 -0.5
v -4.4 0.1 -0.5
v -4.2 0.1 -0.5
v -4.1 0.1 -0.5
v -3.6 0.1 -0.5
v -4.6 0.1 -0.6
v -4.5 0.1 -0.6
v -4.1 0.1 -0.6
v -4 0.1 -0.6
v -5 0.1 -0.7
v -4.5 0.1 -0.7
v -4.4 0.1 -0.7
v -4.2 0.1 -0.7
v -4.1 0.1 -0.7
v -4 0.1 -0.7
v -3.9 0.1 -0.7
v -5.1 0.1 -0.8
v -4.4 0.1 -0.8
v -4.3 0.1 -0.8
v -4.2 0.1 -0.8
v -4 0.1 -0.8
v -3.9 0.1 -0.8
v -3.8 0.1 -0.8
v -5.1 0.1 -0.9
v -5 0.1 -0.9
v -4.5 0.1 -0.9
v -4.4 0.1 -0.9
v -4.3 0.1 -0.9
v -3.9 0.1 -0.9
v -3.8 0.1 -0.9
v -3.7 0.1 -0.9
v -5.1 0.1 -1
v -5 0.1 -1
v -4.9 0.1 -1
v -4.6 0.1 -1
v -4.5 0.1 -1
v -4.4 0.1 -1
v -3.8 0.1 -1
v -3.7 0.1 -1
v -3.6 0.1 -1
v -3.5 0.1 -1
v -5 0.1 -1.1
v -4.9 0.1 -1.1
v -4.8 0.1 -1.1
v -4.7 0.1 -1.1
v -4.6 0.1 -1.1
v -4.5 0.1 -1.1
v -3.8 0.1 -1.1
v -3.7 0.1 -1.1
v -3.6 0.1 -1.1
v -4.9 0.1 -1.2
v -4.8 0.1 -1.2
v -4.7 0.1 -1.2
v -4.6 0.1 -1.2
v -3.9 0.1 -1.2
v -3.8 0.1 -1.2
v -3.7 0.1 -1.2
v -4.8 0.1 -1.3
v -4.7 0.1 -1.3
v -4.2 0.1 -1.3
v -4 0.1 -1.3
v -3.9 0.1 -1.3
v -3.8 0.1 -1.3
v -4.7 0.1 -1.4
v -4.1 0.1 -1.4
v -4 0.1 -1.4
v -3.9 0.1 -1.4

# faces
f 5/2/1 2/2/1 1/2/1
f 6/3/1 3/3/1 2/3/1
f 6/2/1 2/2/1 5/2/1
f 7/2/1 4/2/1 3/2/1
f 7/3/1 3/3/1 6/3/1
f 8/2/1 4/2/1 7/2/1
f 13/2/1 10/2/1 9/2/1
f 14/2/1 10/2/1 13/2/1
f 15/2/1 12/2/1 11/2/1
f 16/2/1 12/2/1 15/2/1
f 23/2/1 18/2/1 17/2/1
f 24/2/1 18/2/1 23/2/1
f 25/2/1 20/2/1 19/2/1
f 26/2/1 20/2/1 25/2/1
f 27/2/1 22/2/1 21/2/1
f 28/2/1 22/2/1 27/2/1
f 35/2/1 30/2/1 29/2/1
f 36/2/1 30/2/1 35/2/1
f 37/2/1 32/2/1 31/2/1
f 38/2/1 32/2/1 37/2/1
f 39/2/1 34/2/1 33/2/1
f 40/2/1 34/2/1 39/2/1
f 47/2/1 42/2/1 41/2/1
f 48/2/1 42/2/1 47/2/1
f 49/2/1 44/2/1 43/2/1
f 50/2/1 44/2/1 49/2/1
f 51/2/1 46/2/1 45/2/1
f 52/2/1 46/2/1 51/2/1
f 55/2/1 54/2/1 53/2/1
f 56/2/1 54/2/1 55/2/1
f 59/2/1 58/2/1 57/2/1
f 60/2/1 58/2/1 59/2/1
f 63/2/1 62/2/1 61/2/1
f 64/2/1 62/2/1 63/2/1
f 69/2/1 66/2/1 65/2/1
f 70/2/1 66/2/1 69/2/1
f 71/2/1 68/2/1 67/2/1
f 72/2/1 68/2/1 71/2/1
f 75/2/1 74/2/1 73/2/1
f 76/2/1 74/2/1 75/2/1
f 79/2/1 78/2/1 77/2/1
f 80/2/1 78/2/1 79/2/1
f 83/2/1 82/2/1 81/2/1
f 84/2/1 82/2/1 83/2/1
f 87/2/1 86/2/1 85/2/1
f 88/2/1 86/2/1 87/2/1
f 89/2/2 90/2/2 91/2/2
f 91/2/2 90/2/2 92/2/2
f 93/2/2 94/2/2 95/2/2
f 95/2/2 94/2/2 96/2/2
f 97/2/2 98/2/2 99/2/2
f 99/2/2 98/2/2 100/2/2
f 101/2/2 102/2/2 103/2/2
f 103/2/2 102/2/2 104/2/2
f 105/2/2 106/2/2 109/2/2
f 109/2/2 106/2/2 110/2/2
f 107/2/2 108/2/2 111/2/2
f 111/2/2 108/2/2 112/2/2
f 113/2/2 114/2/2 115/2/2
f 115/2/2 114/2/2 116/2/2
f 117/2/2 118/2/2 119/2/2
f 119/2/2 118/2/2 120/2/2
f 121/2/2 122/2/2 123/2/2
f 123/2/2 122/2/2 124/2/2
f 125/2/2 126/2/2 131/2/2
f 131/2/2 126/2/2 132/2/2
f 127/2/2 128/2/2 133/2/2
f 133/2/2 128/2/2 134/2/2
f 129/2/2 130/2/2 135/2/2
f 135/2/2 130/2/2 136/2/2
f 137/2/2 138/2/2 143/2/2
f 143/2/2 138/2/2 144/2/2
f 139/2/2 140/2/2 145/2/2
f 145/2/2 140/2/2 146/2/2
f 141/2/2 142/2/2 147/2/2
f 147/2/2 142/2/2 148/2/2
f 149/2/2 150/2/2 155/2/2
f 155/2/2 150/2/2 156/2/2
f 151/2/2 152/2/2 157/2/2
f 157/2/2 152/2/2 158/2/2
f 153/2/2 154/2/2 159/2/2
f 159/2/2 154/2/2 160/2/2
f 161/2/2 162/2/2 163/2/2
f 163/2/2 162/2/2 164/2/2
f 165/3/2 166/3/2 168/3/2
f 166/2/2 167/2/2 169/2/2
f 168/3/2 166/3/2 169/3/2
f 169/2/2 167/2/2 170/2/2
f 173/2/3 172/2/3 171/2/3
f 174/2/3 172/2/3 173/2/3
f 175/3/3 174/3/3 173/3/3
f 176/3/3 174/3/3 175/3/3
f 177/2/3 176/2/3 175/2/3
f 178/2/3 176/2/3 177/2/3
f 181/2/3 180/2/3 179/2/3
f 182/2/3 180/2/3 181/2/3
f 185/2/3 184/2/3 183/2/3
f 186/2/3 184/2/3 185/2/3
f 189/2/3 188/2/3 187/2/3
f 190/2/3 188/2/3 189/2/3
f 193/2/3 192/2/3 191/2/3
f 194/2/3 192/2/3 193/2/3
f 197/2/3 196/2/3 195/2/3
f 198/2/3 196/2/3 197/2/3
f 201/2/3 200/2/3 199/2/3
f 202/2/3 200/2/3 201/2/3
f 205/2/3 204/2/3 203/2/3
f 206/2/3 204/2/3 205/2/3
f 209/3/3 208/3/3 207/3/3
f 210/3/3 208/3/3 209/3/3
f 213/2/3 212/2/3 211/2/3
f 214/2/3 212/2/3 213/2/3
f 217/2/3 216/2/3 215/2/3
f 218/2/3 216/2/3 217/2/3
f 221/2/3 220/2/3 219/2/3
f 222/2/3 220/2/3 221/2/3
f 225/2/3 224/2/3 223/2/3
f 226/2/3 224/2/3 225/2/3
f 229/2/3 228/2/3 227/2/3
f 230/2/3 228/2/3 229/2/3
f 233/2/3 232/2/3 231/2/3
f 234/2/3 232/2/3 233/2/3
f 237/2/3 236/2/3 235/2/3
f 238/2/3 236/2/3 237/2/3
f 241/2/3 240/2/3 239/2/3
f 242/2/3 240/2/3 241/2/3
f 245/2/3 244/2/3 243/2/3
f 246/2/3 244/2/3 245/2/3
f 249/2/3 248/2/3 247/2/3
f 250/2/3 248/2/3 249/2/3
f 253/2/3 252/2/3 251/2/3
f 254/2/3 252/2/3 253/2/3
f 255/2/4 256/2/4 257/2/4
f 257/2/4 256/2/4 258/2/4
f 259/2/4 260/2/4 261/2/4
f 261/2/4 260/2/4 262/2/4
f 263/2/4 264/2/4 265/2/4
f 265/2/4 264/2/4 266/2/4
f 267/2/4 268/2/4 269/2/4
f 269/2/4 268/2/4 270/2/4
f 271/2/4 272/2/4 273/2/4
f 273/2/4 272/2/4 274/2/4
f 275/2/4 276/2/4 277/2/4
f 277/2/4 276/2/4 278/2/4
f 279/2/4 280/2/4 281/2/4
f 281/2/4 280/2/4 282/2/4
f 283/2/4 284/2/4 285/2/4
f 285/2/4 284/2/4 286/2/4
f 287/2/4 288/2/4 289/2/4
f 289/2/4 288/2/4 290/2/4
f 291/2/4 292/2/4 293/2/4
f 293/2/4 292/2/4 294/2/4
f 295/2/4 296/2/4 297/2/4
f 297/2/4 296/2/4 298/2/4
f 299/2/4 300/2/4 301/2/4
f 301/2/4 300/2/4 302/2/4
f 303/2/4 304/2/4 305/2/4
f 305/2/4 304/2/4 306/2/4
f 307/2/4 308/2/4 309/2/4
f 309/2/4 308/2/4 310/2/4
f 311/2/4 312/2/4 313/2/4
f 313/2/4 312/2/4 314/2/4
f 315/2/4 316/2/4 317/2/4
f 317/2/4 316/2/4 318/2/4
f 319/2/4 320/2/4 321/2/4
f 321/2/4 320/2/4 322/2/4
f 323/2/4 324/2/4 325/2/4
f 325/2/4 324/2/4 326/2/4
f 327/2/4 328/2/4 329/2/4
f 329/2/4 328/2/4 330/2/4
f 331/2/4 332/2/4 333/2/4
f 333/2/4 332/2/4 334/2/4
f 335/2/4 336/2/4 337/2/4
f 337/2/4 336/2/4 338/2/4
f 337/3/4 338/3/4 339/3/4
f 339/3/4 338/3/4 340/3/4
f 339/2/4 340/2/4 341/2/4
f 341/2/4 340/2/4 342/2/4
f 348/2/5 344/2/5 343/2/5
f 349/3/5 345/3/5 344/3/5
f 349/2/5 344/2/5 348/2/5
f 350/2/5 346/2/5 345/2/5
f 351/2/5 346/2/5 350/2/5
f 354/2/5 348/2/5 347/2/5
f 355/3/5 349/3/5 348/3/5
f 355/2/5 348/2/5 354/2/5
f 357/2/5 352/2/5 351/2/5
f 358/2/5 352/2/5 357/2/5
f 361/2/5 354/2/5 353/2/5
f 362/3/5 355/3/5 354/3/5
f 362/2/5 354/2/5 361/2/5
f 364/2/5 357/2/5 356/2/5
f 365/3/5 358/3/5 357/3/5
f 365/2/5 357/2/5 364/2/5
f 366/2/5 359/2/5 358/2/5
f 366/3/5 358/3/5 365/3/5
f 367/2/5 359/2/5 366/2/5
f 370/2/5 361/2/5 360/2/5
f 371/3/5 362/3/5 361/3/5
f 371/2/5 361/2/5 370/2/5
f 372/3/5 355/3/5 362/3/5
f 372/3/5 362/3/5 371/3/5
f 374/2/5 364/2/5 363/2/5
f 375/3/5 365/3/5 364/3/5
f 375/3/5 368/3/5 367/3/5
f 375/2/5 364/2/5 374/2/5
f 375/3/5 366/3/5 365/3/5
f 375/3/5 367/3/5 366/3/5
f 376/2/5 372/2/5 371/2/5
f 377/3/5 355/3/5 372/3/5
f 377/2/5 372/2/5 376/2/5
f 378/3/5 349/3/5 355/3/5
f 378/3/5 355/3/5 377/3/5
f 380/2/5 374/2/5 373/2/5
f 381/3/5 375/3/5 374/3/5
f 381/2/5 374/2/5 380/2/5
f 382/2/5 378/2/5 377/2/5
f 383/3/5 349/3/5 378/3/5
f 383/2/5 378/2/5 382/2/5
f 384/3/5 345/3/5 349/3/5
f 384/3/5 349/3/5 383/3/5
f 385/2/5 350/2/5 345/2/5
f 386/2/5 380/2/5 379/2/5
f 387/3/5 381/3/5 380/3/5
f 387/2/5 380/2/5 386/2/5
f 388/3/5 375/3/5 381/3/5
f 388/3/5 381/3/5 387/3/5
f 388/3/5 368/3/5 375/3/5
f 389/2/5 384/2/5 383/2/5
f 390/3/5 345/3/5 384/3/5
f 390/2/5 384/2/5 389/2/5
f 391/2/5 387/2/5 386/2/5
f 391/3/5 345/3/5 390/3/5
f 391/2/5 385/2/5 345/2/5
f 391/2/5 388/2/5 387/2/5
f 391/2/5 386/2/5 385/2/5
f 392/2/5 388/2/5 391/2/5
f 393/2/5 388/2/5 392/2/5
f 394/2/5 388/2/5 393/2/5
f 395/2/5 388/2/5 394/2/5
f 396/2/5 391/2/5 390/2/5
f 396/2/5 392/2/5 391/2/5
f 397/2/5 392/2/5 396/2/5
f 398/2/5 394/2/5 393/2/5
f 400/2/5 370/2/5 369/2/5
f 401/2/5 392/2/5 397/2/5
f 402/1/5 393/1/5 392/1/5
f 402/2/5 392/2/5 401/2/5
f 403/2/5 399/2/5 398/2/5
f 403/1/5 393/1/5 402/1/5
f 403/2/5 398/2/5 393/2/5
f 404/2/5 399/2/5 403/2/5
f 405/2/5 399/2/5 404/2/5
f 407/2/5 402/2/5 401/2/5
f 407/2/5 400/2/5 369/2/5
f 407/2/5 401/2/5 400/2/5
f 407/2/5 404/2/5 403/2/5
f 407/2/5 403/2/5 402/2/5
f 408/2/5 404/2/5 407/2/5
f 409/2/5 404/2/5 408/2/5
f 410/2/5 404/2/5 409/2/5
f 411/2/5 406/2/5 405/2/5
f 411/3/5 405/3/5 404/3/5
f 412/2/5 406/2/5 411/2/5
f 414/3/5 408/3/5 407/3/5
f 415/3/5 408/3/5 414/3/5
f 416/3/5 408/3/5 415/3/5
f 417/2/5 409/2/5 408/2/5
f 417/3/5 408/3/5 416/3/5
f 418/2/5 409/2/5 417/2/5
f 419/2/5 413/2/5 412/2/5
f 419/3/5 412/3/5 411/3/5
f 420/2/5 413/2/5 419/2/5
f 422/2/5 415/2/5 414/2/5
f 423/3/5 416/3/5 415/3/5
f 423/2/5 415/2/5 422/2/5
f 424/3/5 416/3/5 423/3/5
f 425/3/5 416/3/5 424/3/5
f 426/2/5 417/2/5 416/2/5
f 426/3/5 416/3/5 425/3/5
f 427/2/5 417/2/5 426/2/5
f 428/2/5 421/2/5 420/2/5
f 428/3/5 420/3/5 419/3/5
f 429/2/5 421/2/5 428/2/5
f 430/2/5 388/2/5 395/2/5
f 431/2/5 388/2/5 430/2/5
f 432/2/5 424/2/5 423/2/5
f 433/3/5 425/3/5 424/3/5
f 433/2/5 424/2/5 432/2/5
f 434/3/5 425/3/5 433/3/5
f 435/3/5 425/3/5 434/3/5
f 436/2/5 426/2/5 425/2/5
f 436/3/5 425/3/5 435/3/5
f 437/2/5 426/2/5 436/2/5
f 438/3/5 429/3/5 428/3/5
f 438/3/5 428/3/5 419/3/5
f 439/2/5 430/2/5 429/2/5
f 439/3/5 429/3/5 438/3/5
f 440/2/5 430/2/5 439/2/5
f 441/2/5 434/2/5 433/2/5
f 442/3/5 435/3/5 434/3/5
f 442/2/5 434/2/5 441/2/5
f 443/2/5 436/2/5 435/2/5
f 443/3/5 435/3/5 442/3/5
f 444/2/5 436/2/5 443/2/5
f 445/3/5 419/3/5 411/3/5
f 445/3/5 438/3/5 419/3/5
f 446/2/5 439/2/5 438/2/5
f 446/3/5 438/3/5 445/3/5
f 447/2/5 439/2/5 446/2/5
f 448/2/5 443/2/5 442/2/5
f 449/2/5 443/2/5 448/2/5
f 450/2/5 404/2/5 410/2/5
f 451/3/5 411/3/5 404/3/5
f 451/3/5 445/3/5 411/3/5
f 452/2/5 446/2/5 445/2/5
f 452/3/5 445/3/5 451/3/5
f 453/2/5 446/2/5 452/2/5
f 454/2/5 450/2/5 449/2/5
f 455/3/5 451/3/5 404/3/5
f 455/2/5 450/2/5 454/2/5
f 455/2/5 404/2/5 450/2/5
f 456/2/5 452/2/5 451/2/5
f 456/3/5 451/3/5 455/3/5
f 457/2/5 452/2/5 456/2/5
f 458/2/6 459/2/6 463/2/6
f 459/3/6 460/3/6 464/3/6
f 463/2/6 459/2/6 464/2/6
f 460/2/6 461/2/6 465/2/6
f 465/2/6 461/2/6 466/2/6
f 462/2/6 463/2/6 469/2/6
f 463/3/6 464/3/6 470/3/6
f 469/2/6 463/2/6 470/2/6
f 466/2/6 467/2/6 472/2/6
f 472/2/6 467/2/6 473/2/6
f 468/2/6 469/2/6 476/2/6
f 469/3/6 470/3/6 477/3/6
f 476/2/6 469/2/6 477/2/6
f 471/2/6 472/2/6 479/2/6
f 472/3/6 473/3/6 480/3/6
f 479/2/6 472/2/6 480/2/6
f 473/2/6 474/2/6 481/2/6
f 480/3/6 473/3/6 481/3/6
f 481/2/6 474/2/6 482/2/6
f 475/2/6 476/2/6 485/2/6
f 476/3/6 477/3/6 486/3/6
f 485/2/6 476/2/6 486/2/6
f 477/3/6 470/3/6 487/3/6
f 486/3/6 477/3/6 487/3/6
f 478/2/6 479/2/6 489/2/6
f 479/3/6 480/3/6 490/3/6
f 482/3/6 483/3/6 490/3/6
f 489/2/6 479/2/6 490/2/6
f 480/3/6 481/3/6 490/3/6
f 481/3/6 482/3/6 490/3/6
f 486/2/6 487/2/6 491/2/6
f 487/3/6 470/3/6 492/3/6
f 491/2/6 487/2/6 492/2/6
f 470/3/6 464/3/6 493/3/6
f 492/3/6 470/3/6 493/3/6
f 488/2/6 489/2/6 495/2/6
f 489/3/6 490/3/6 496/3/6
f 495/2/6 489/2/6 496/2/6
f 492/2/6 493/2/6 497/2/6
f 493/3/6 464/3/6 498/3/6
f 497/2/6 493/2/6 498/2/6
f 464/3/6 460/3/6 499/3/6
f 498/3/6 464/3/6 499/3/6
f 460/2/6 465/2/6 500/2/6
f 494/2/6 495/2/6 501/2/6
f 495/3/6 496/3/6 502/3/6
f 501/2/6 495/2/6 502/2/6
f 496/3/6 490/3/6 503/3/6
f 502/3/6 496/3/6 503/3/6
f 490/3/6 483/3/6 503/3/6
f 498/2/6 499/2/6 504/2/6
f 499/3/6 460/3/6 505/3/6
f 504/2/6 499/2/6 505/2/6
f 501/2/6 502/2/6 506/2/6
f 505/3/6 460/3/6 506/3/6
f 460/2/6 500/2/6 506/2/6
f 502/2/6 503/2/6 506/2/6
f 500/2/6 501/2/6 506/2/6
f 506/2/6 503/2/6 507/2/6
f 507/2/6 503/2/6 508/2/6
f 508/2/6 503/2/6 509/2/6
f 509/2/6 503/2/6 510/2/6
f 505/2/6 506/2/6 511/2/6
f 506/2/6 507/2/6 511/2/6
f 511/2/6 507/2/6 512/2/6
f 508/2/6 509/2/6 513/2/6
f 484/2/6 485/2/6 515/2/6
f 512/2/6 507/2/6 516/2/6
f 507/1/6 508/1/6 517/1/6
f 516/2/6 507/2/6 517/2/6
f 513/2/6 514/2/6 518/2/6
f 517/1/6 508/1/6 518/1/6
f 508/2/6 513/2/6 518/2/6
f 518/2/6 514/2/6 519/2/6
f 519/2/6 514/2/6 520/2/6
f 516/2/6 517/2/6 522/2/6
f 484/2/6 515/2/6 522/2/6
f 515/2/6 516/2/6 522/2/6
f 518/2/6 519/2/6 522/2/6
f 517/2/6 518/2/6 522/2/6
f 522/2/6 519/2/6 523/2/6
f 523/2/6 519/2/6 524/2/6
f 524/2/6 519/2/6 525/2/6
f 520/2/6 521/2/6 526/2/6
f 519/3/6 520/3/6 526/3/6
f 526/2/6 521/2/6 527/2/6
f 522/3/6 523/3/6 529/3/6
f 529/3/6 523/3/6 530/3/6
f 530/3/6 523/3/6 531/3/6
f 523/2/6 524/2/6 532/2/6
f 531/3/6 523/3/6 532/3/6
f 532/2/6 524/2/6 533/2/6
f 527/2/6 528/2/6 534/2/6
f 526/3/6 527/3/6 534/3/6
f 534/2/6 528/2/6 535/2/6
f 529/2/6 530/2/6 537/2/6
f 530/3/6 531/3/6 538/3/6
f 537/2/6 530/2/6 538/2/6
f 538/3/6 531/3/6 539/3/6
f 539/3/6 531/3/6 540/3/6
f 531/2/6 532/2/6 541/2/6
f 540/3/6 531/3/6 541/3/6
f 541/2/6 532/2/6 542/2/6
f 535/2/6 536/2/6 543/2/6
f 534/3/6 535/3/6 543/3/6
f 543/2/6 536/2/6 544/2/6
f 510/2/6 503/2/6 545/2/6
f 545/2/6 503/2/6 546/2/6
f 538/2/6 539/2/6 547/2/6
f 539/3/6 540/3/6 548/3/6
f 547/2/6 539/2/6 548/2/6
f 548/3/6 540/3/6 549/3/6
f 549/3/6 540/3/6 550/3/6
f 540/2/6 541/2/6 551/2/6
f 550/3/6 540/3/6 551/3/6
f 551/2/6 541/2/6 552/2/6
f 543/3/6 544/3/6 553/3/6
f 534/3/6 543/3/6 553/3/6
f 544/2/6 545/2/6 554/2/6
f 553/3/6 544/3/6 554/3/6
f 554/2/6 545/2/6 555/2/6
f 548/2/6 549/2/6 556/2/6
f 549/3/6 550/3/6 557/3/6
f 556/2/6 549/2/6 557/2/6
f 550/2/6 551/2/6 558/2/6
f 557/3/6 550/3/6 558/3/6
f 558/2/6 551/2/6 559/2/6
f 526/3/6 534/3/6 560/3/6
f 534/3/6 553/3/6 560/3/6
f 553/2/6 554/2/6 561/2/6
f 560/3/6 553/3/6 561/3/6
f 561/2/6 554/2/6 562/2/6
f 557/2/6 558/2/6 563/2/6
f 563/2/6 558/2/6 564/2/6
f 525/2/6 519/2/6 565/2/6
f 519/3/6 526/3/6 566/3/6
f 526/3/6 560/3/6 566/3/6
f 560/2/6 561/2/6 567/2/6
f 566/3/6 560/3/6 567/3/6
f 567/2/6 561/2/6 568/2/6
f 564/2/6 565/2/6 569/2/6
f 519/3/6 566/3/6 570/3/6
f 569/2/6 565/2/6 570/2/6
f 565/2/6 519/2/6 570/2/6
f 566/2/6 567/2/6 571/2/6
f 570/3/6 566/3/6 571/3/6
f 571/2/6 567/2/6 572/2/6
